<svg width="302" height="170" xmlns="http://www.w3.org/2000/svg"><defs><linearGradient x1="50%" y1="0%" x2="50%" y2="100%" id="b"><stop stop-color="#E8E9EC" offset="0%"/><stop stop-color="#FFF" offset="100%"/></linearGradient><linearGradient x1="50%" y1="0%" x2="50%" y2="100%" id="c"><stop stop-color="#E8E9EC" offset="0%"/><stop stop-color="#FFF" offset="100%"/></linearGradient><linearGradient x1="50%" y1="0%" x2="50%" y2="100%" id="d"><stop stop-color="#E8E9EC" offset="0%"/><stop stop-color="#FFF" offset="100%"/></linearGradient><linearGradient x1="50%" y1="0%" x2="50%" y2="100%" id="e"><stop stop-color="#E8E9EC" offset="0%"/><stop stop-color="#FFF" offset="100%"/></linearGradient><linearGradient x1="50%" y1="0%" x2="50%" y2="100%" id="f"><stop stop-color="#E8E9EC" offset="0%"/><stop stop-color="#FFF" offset="100%"/></linearGradient><linearGradient x1="50%" y1="0%" x2="50%" y2="100%" id="g"><stop stop-color="#E8E9EC" offset="0%"/><stop stop-color="#FFF" offset="100%"/></linearGradient><path d="M1 8c0-4.418 3.578-8 8.005-8h283.99C297.416 0 301 3.59 301 8v162H1V8z" id="a"/></defs><g fill="none" fill-rule="evenodd"><path stroke="#DADCE0" stroke-linecap="square" d="M.5 169.5h301"/><path d="M151.741 31.495l.888.017 2.413-2.4.117-1.017a10.833 10.833 0 00-7.2-2.73c-5 0-9.218 3.384-10.468 7.97.264-.182.825-.047.825-.047l4.822-.788s.25-.408.372-.382a6.026 6.026 0 014.449-1.956c1.431 0 2.747.5 3.782 1.333" fill="#EA4335"/><path d="M158.429 33.341a10.802 10.802 0 00-3.272-5.248l-3.418 3.4a5.975 5.975 0 012.246 4.665v.6a3.009 3.009 0 013.013 2.998 3.009 3.009 0 01-3.014 2.997h-6.025l-.603.603v3.598l.603.596h6.026c4.32 0 7.834-3.497 7.834-7.794 0-2.657-1.344-5.007-3.39-6.415" fill="#4285F4"/><path d="M141.932 47.55h6.022v-4.797h-6.021c-.443 0-.862-.097-1.241-.269l-.869.264-2.414 2.402-.21.81a7.819 7.819 0 004.733 1.59" fill="#34A853"/><path d="M141.747 32.022c-4.32 0-7.834 3.497-7.834 7.795a7.773 7.773 0 003.103 6.208l3.495-3.477a2.999 2.999 0 01-1.777-2.731 3.009 3.009 0 013.013-2.998c1.22 0 2.272.727 2.745 1.767l3.494-3.476a7.838 7.838 0 00-6.239-3.088" fill="#FBBC05"/><path d="M73 26.708h19.356v19.356H73z"/><g fill-rule="nonzero"><path d="M90.888 32.262a2.148 2.148 0 00-1.515-1.516c-1.335-.359-6.695-.359-6.695-.359s-5.36 0-6.695.36a2.148 2.148 0 00-1.515 1.515c-.36 1.334-.36 4.124-.36 4.124s0 2.79.36 4.124a2.148 2.148 0 001.515 1.515c1.335.359 6.695.359 6.695.359s5.36 0 6.695-.359a2.148 2.148 0 001.515-1.515c.359-1.335.359-4.124.359-4.124s0-2.79-.36-4.124z" fill="red"/><path fill="#FFF" d="M80.964 38.956l4.453-2.57-4.453-2.571z"/></g><path d="M209.059 26.708h19.356v19.356h-19.356z"/><g fill-rule="nonzero"><path d="M209.865 31.345v1.613l1.85 1.79 2.183 1.234.403-2.714-.403-2.528-1.13-.847c-1.196-.897-2.903-.043-2.903 1.452" fill="#C5221F"/><path d="M223.576 30.74l-.404 2.56.404 2.682 1.98-.98 2.052-2.044v-1.613c0-1.495-1.707-2.349-2.903-1.452l-1.13.847z" fill="#FBBC04"/><path d="M211.075 42.838h2.823v-6.856l-4.033-3.024v8.67c0 .668.542 1.21 1.21 1.21" fill="#4285F4"/><path d="M223.576 42.838h2.822a1.21 1.21 0 001.21-1.21v-8.67l-4.032 3.024v6.856z" fill="#34A853"/><path fill="#EA4335" d="M218.737 34.37l-4.84-3.63v5.242l4.84 3.63 4.839-3.63V30.74z"/></g><g transform="translate(77.554 77.695)"><path fill="url(#b)" opacity=".581" d="M0 40.961v26.344h12.79V36.284z"/><path fill="url(#c)" d="M17.6 29.771v37.534h15.06V24.531h-8.596z"/><path fill="url(#d)" opacity=".581" d="M36.015 29.893v37.412h27.37V33.283h-2.74V20.814H46.663v10.76H39.58v-1.68z"/><path fill="url(#e)" d="M87.797 13.592v53.713h19.13V34.62h-2.068V13.592h-2.543V9.308h-4.954V0h-1.466v9.308H91.1v4.284z"/><path fill="url(#f)" d="M111.752 20.814v24.15h-1.733v22.341h15.306V42.67l-5.031-5.005V24.531h-5.613v-3.717z"/><path fill="url(#g)" d="M128.748 35.148v27.034h14.232V30.169h-7.166z"/><ellipse fill="#4285F4" cx="8.414" cy="44.267" rx="1.825" ry="1.816"/><ellipse fill="#4285F4" cx="125.823" cy="24.839" rx="1.825" ry="1.816"/><ellipse fill="#34A853" cx="25.974" cy="33.425" rx="2.51" ry="2.497"/><ellipse fill="#FBBC04" cx="103.396" cy="31.148" rx="2.51" ry="2.497"/><ellipse fill="#EA4335" cx="34.486" cy="48.37" rx="2.51" ry="2.497"/><ellipse fill="#EA4335" cx="108.492" cy="48.37" rx="2.51" ry="2.497"/></g><path stroke="#9AA0A6" stroke-width="1.5" stroke-linecap="round" stroke-linejoin="round" d="M148.385 90.955l-.284-17.737"/><g transform="translate(127.651 89.78)"><g transform="translate(2.686 43.897)"><rect x=".501" width="36.328" height="7.185" rx="2.903"/><rect fill="#424242" y="5.366" width="36.328" height="1.972" rx=".986"/></g><rect fill="#424242" width="41.558" height="49.968" rx="5.806"/><rect fill="#546E7A" x="2.686" y="33.343" width="36.237" height="13.807" rx="4.355"/><rect fill="#546E7A" x="2.686" y="18.127" width="36.237" height="13.807" rx="4.355"/><path d="M2.686 7.261a4.35 4.35 0 014.353-4.35h27.53a4.352 4.352 0 014.354 4.35v5.108a4.35 4.35 0 01-4.353 4.35H7.039a4.352 4.352 0 01-4.353-4.35V7.261z" fill="#546E7A"/><path d="M12.636 40.176c0-1.05.853-1.902 1.899-1.902h19.404a1.902 1.902 0 010 3.804H14.535a1.896 1.896 0 01-1.899-1.902zM12.636 24.82c0-1.05.853-1.902 1.899-1.902h19.404a1.902 1.902 0 010 3.804H14.535a1.896 1.896 0 01-1.899-1.902zM12.636 9.886c0-1.05.853-1.902 1.899-1.902h19.404a1.902 1.902 0 010 3.804H14.535a1.896 1.896 0 01-1.899-1.902z" fill="#3B3B3B" opacity=".749"/><g transform="translate(5.654 7.984)" fill="#A2E059"><rect y="30.29" width="3.958" height="3.804" rx="1.902"/><rect y="14.934" width="3.958" height="3.804" rx="1.902"/><rect width="3.958" height="3.804" rx="1.902"/></g></g><path stroke="#9AA0A6" stroke-width="1.5" stroke-linecap="round" stroke-linejoin="round" d="M148.138 72.853l-.277-11.253M82.678 61.497v5.853a5.897 5.897 0 005.897 5.896H212.84a5.897 5.897 0 005.897-5.896v-5.8"/><path d="M88.433 60.975a5.508 5.508 0 01-5.513 5.504 5.508 5.508 0 01-5.513-5.504 5.509 5.509 0 015.513-5.505 5.509 5.509 0 015.513 5.505z" fill="#34A853"/><g><path d="M153.324 60.975a5.508 5.508 0 01-5.513 5.504 5.508 5.508 0 01-5.512-5.504 5.509 5.509 0 015.512-5.505 5.509 5.509 0 015.513 5.505z" fill="#34A853"/><path fill="#FFF" d="M151.254 59.533l-.744-.767-3.663 3.552-1.77-1.913-.783.723 2.522 2.731.786-.725-.031-.03z"/></g><g><path d="M223.83 60.975a5.508 5.508 0 01-5.513 5.504 5.508 5.508 0 01-5.512-5.504 5.509 5.509 0 015.512-5.505 5.509 5.509 0 015.513 5.505z" fill="#34A853"/><path fill="#FFF" d="M221.76 59.533l-.744-.767-3.663 3.552-1.77-1.913-.784.723 2.523 2.731.785-.725-.03-.03z"/></g><path fill="#FFF" d="M86.362 59.533l-.743-.767-3.664 3.552-1.77-1.913-.783.723 2.523 2.731.785-.725-.03-.03z"/></g></svg>